# xmcd
#
# Track frame offsets: 
#        150
#        19038
#        43730
#        74090
#        86564
#        101142
#        117980
#        143667
#        160046
#        182750
#        200995
#        225275
#        239929
#        267740
#        284156
#        301871
#        321653
#
# Disc length: 4745 seconds
#
# Revision: 0
# Processed by: cddbd v1.5.2PL0 Copyright (c) Steve Scherf et al.
# Submitted via: ExactAudioCopy v1.3
#
DISCID=0d128711
DTITLE=Various Artist - Akella Presents - vol. 215 - Rockin' Blues  C
DTITLE=D1
DYEAR=2019
DGENRE=Blues
TTITLE0=Nine Below Zero - Breadhead
TTITLE1=The Dixie Kingpins - Stop Thinkin' About Just Ourselves
TTITLE2=The Backyard Blues Connection - As The Years Go Passing By
TTITLE3=Luca Lionetti - Mary Had a Little Lamb
TTITLE4=Kern Pratt - Hard Working Man
TTITLE5=Tubesnakes - It Needs Workin'
TTITLE6=Gregor Hilden - Fool No More
TTITLE7=Fabian Anderhub - Didn't Need To Lose Your Love
TTITLE8=Philipp Fankhauser - Wave You Goodbye
TTITLE9=Lee Holmes - Bad News
TTITLE10=Luca Lionetti - Texas Flood
TTITLE11=Dynamite Blues Band - Can't Stop
TTITLE12=John Verity Band - Walkin' The Blues
TTITLE13=Andreas Diehlmann Band - Here Comes The Rain
TTITLE14=Spencer MacKenzie - Next Door Neighbor Blues
TTITLE15=Ken Tucker - Cold Rain Comin'
TTITLE16=Wildmen Bluesband - Devil
EXTD=
EXTT0=
EXTT1=
EXTT2=
EXTT3=
EXTT4=
EXTT5=
EXTT6=
EXTT7=
EXTT8=
EXTT9=
EXTT10=
EXTT11=
EXTT12=
EXTT13=
EXTT14=
EXTT15=
EXTT16=
PLAYORDER=
